# Blender v3.1.2 OBJ File: ''
# www.blender.org
mtllib T-Block.mtl
o T-Block_Cube
v 1.900000 1.900000 -4.000000
v 1.900000 1.900000 -6.000000
v 1.900000 3.900000 -4.000000
v 1.900000 2.000000 -5.900000
v 1.900000 2.000000 -1.900000
v 1.900000 2.000000 -3.900000
v 1.900000 4.000000 -3.900000
v 2.000000 1.900000 -1.900000
v 2.000000 1.900000 -3.900000
v 2.000000 3.900000 -3.900000
v 2.000000 1.900000 -5.900000
v 1.900000 0.000000 -3.900000
v 1.900000 0.000000 -1.900000
v 1.900000 0.000000 -5.900000
v 1.900000 0.100000 -6.000000
v 1.900000 2.100000 -4.000000
v 1.900000 0.100000 -4.000000
v 2.000000 0.100000 -5.900000
v 2.000000 0.100000 -3.900000
v 2.000000 0.100000 -1.900000
v 2.000000 2.100000 -3.900000
v 2.000000 1.900000 -0.100000
v 2.000000 1.900000 -4.100000
v 2.000000 1.900000 -2.100000
v 2.000000 3.900000 -2.100000
v 1.900000 2.000000 -4.100000
v 1.900000 2.000000 -0.100000
v 1.900000 2.000000 -2.100000
v 1.900000 4.000000 -2.100000
v 1.900000 3.900000 -2.000000
v 1.900000 1.900000 0.000000
v 1.900000 1.900000 -2.000000
v 2.000000 0.100000 -0.100000
v 2.000000 0.100000 -4.100000
v 2.000000 2.100000 -2.100000
v 2.000000 0.100000 -2.100000
v 1.900000 2.100000 -2.000000
v 1.900000 0.100000 -2.000000
v 1.900000 0.100000 0.000000
v 1.900000 0.000000 -2.100000
v 1.900000 0.000000 -4.100000
v 1.900000 0.000000 -0.100000
v 0.100000 1.900000 -6.000000
v 0.100000 1.900000 -4.000000
v 0.100000 3.900000 -4.000000
v 0.000000 3.900000 -3.900000
v 0.000000 1.900000 -1.900000
v 0.000000 1.900000 -5.900000
v 0.000000 1.900000 -3.900000
v 0.100000 2.000000 -5.900000
v 0.100000 4.000000 -3.900000
v 0.100000 2.000000 -1.900000
v 0.100000 2.000000 -3.900000
v 0.000000 0.100000 -3.900000
v 0.000000 2.100000 -3.900000
v 0.000000 0.100000 -5.900000
v 0.000000 0.100000 -1.900000
v 0.100000 0.100000 -6.000000
v 0.100000 0.100000 -4.000000
v 0.100000 2.100000 -4.000000
v 0.100000 0.000000 -5.900000
v 0.100000 0.000000 -3.900000
v 0.100000 0.000000 -1.900000
v 0.000000 3.900000 -2.100000
v 0.000000 1.900000 -2.100000
v 0.000000 1.900000 -0.100000
v 0.000000 1.900000 -4.100000
v 0.100000 1.900000 0.000000
v 0.100000 1.900000 -2.000000
v 0.100000 3.900000 -2.000000
v 0.100000 2.000000 -0.100000
v 0.100000 2.000000 -2.100000
v 0.100000 4.000000 -2.100000
v 0.100000 2.000000 -4.100000
v 0.100000 0.000000 -4.100000
v 0.100000 0.000000 -2.100000
v 0.100000 0.000000 -0.100000
v 0.100000 0.100000 0.000000
v 0.100000 0.100000 -2.000000
v 0.100000 2.100000 -2.000000
v 0.000000 2.100000 -2.100000
v 0.000000 0.100000 -2.100000
v 0.000000 0.100000 -0.100000
v 0.000000 0.100000 -4.100000
vt 0.137500 0.512500
vt 0.362500 0.512500
vt 0.362500 0.737500
vt 0.137500 0.737500
vt 0.387500 0.012500
vt 0.612500 0.012500
vt 0.612500 0.237500
vt 0.387500 0.237500
vt 0.387500 0.512500
vt 0.612500 0.512500
vt 0.612500 0.737500
vt 0.387500 0.737500
vt 0.612500 0.487500
vt 0.625000 0.487500
vt 0.612500 0.500000
vt 0.362500 0.500000
vt 0.375000 0.512500
vt 0.625000 0.737500
vt 0.612500 0.750000
vt 0.375000 0.762500
vt 0.387500 0.750000
vt 0.375000 0.762500
vt 0.612500 0.250000
vt 0.625000 0.237500
vt 0.612500 0.250000
vt 0.387500 0.250000
vt 0.375000 0.237500
vt 0.612500 0.000000
vt 0.625000 0.012500
vt 0.125000 0.737500
vt 0.137500 0.750000
vt 0.125000 0.512500
vt 0.137500 0.500000
vt 0.387500 0.487500
vt 0.387500 0.000000
vt 0.612500 0.762500
vt 0.387500 0.762500
vt 0.612500 0.262500
vt 0.387500 0.262500
vt 0.625000 0.762500
vt 0.625000 0.987500
vt 0.612500 0.987500
vt 0.637500 0.512500
vt 0.637500 0.737500
vt 0.362500 0.750000
vt 0.625000 0.262500
vt 0.137500 0.512500
vt 0.362500 0.512500
vt 0.362500 0.737500
vt 0.137500 0.737500
vt 0.387500 0.012500
vt 0.612500 0.012500
vt 0.612500 0.237500
vt 0.387500 0.237500
vt 0.637500 0.512500
vt 0.862500 0.512500
vt 0.862500 0.737500
vt 0.637500 0.737500
vt 0.387500 0.512500
vt 0.612500 0.512500
vt 0.612500 0.737500
vt 0.387500 0.737500
vt 0.625000 0.487500
vt 0.612500 0.500000
vt 0.612500 0.487500
vt 0.362500 0.500000
vt 0.375000 0.512500
vt 0.625000 0.737500
vt 0.612500 0.750000
vt 0.375000 0.762500
vt 0.387500 0.750000
vt 0.375000 0.762500
vt 0.612500 0.250000
vt 0.625000 0.237500
vt 0.612500 0.250000
vt 0.387500 0.250000
vt 0.375000 0.237500
vt 0.612500 0.000000
vt 0.625000 0.012500
vt 0.125000 0.737500
vt 0.137500 0.750000
vt 0.125000 0.512500
vt 0.137500 0.500000
vt 0.387500 0.487500
vt 0.387500 0.000000
vt 0.612500 0.762500
vt 0.387500 0.762500
vt 0.612500 0.262500
vt 0.387500 0.262500
vt 0.625000 0.762500
vt 0.625000 0.987500
vt 0.612500 0.987500
vt 0.362500 0.750000
vt 0.625000 0.262500
vt 0.137500 0.512500
vt 0.362500 0.512500
vt 0.362500 0.737500
vt 0.137500 0.737500
vt 0.387500 0.012500
vt 0.612500 0.012500
vt 0.612500 0.237500
vt 0.387500 0.237500
vt 0.387500 0.762500
vt 0.612500 0.762500
vt 0.612500 0.987500
vt 0.387500 0.987500
vt 0.637500 0.512500
vt 0.862500 0.512500
vt 0.862500 0.737500
vt 0.637500 0.737500
vt 0.387500 0.512500
vt 0.612500 0.512500
vt 0.612500 0.737500
vt 0.387500 0.737500
vt 0.612500 0.487500
vt 0.625000 0.487500
vt 0.612500 0.500000
vt 0.362500 0.500000
vt 0.375000 0.512500
vt 0.625000 0.737500
vt 0.612500 0.750000
vt 0.375000 0.762500
vt 0.375000 0.762500
vt 0.387500 0.750000
vt 0.612500 0.250000
vt 0.625000 0.237500
vt 0.612500 0.250000
vt 0.387500 0.250000
vt 0.375000 0.237500
vt 0.612500 0.000000
vt 0.625000 0.012500
vt 0.125000 0.737500
vt 0.137500 0.750000
vt 0.125000 0.512500
vt 0.137500 0.500000
vt 0.387500 0.487500
vt 0.387500 0.000000
vt 0.612500 0.262500
vt 0.387500 0.262500
vt 0.625000 0.762500
vt 0.625000 0.987500
vt 0.362500 0.750000
vt 0.625000 0.262500
vt 0.387500 0.012500
vt 0.612500 0.012500
vt 0.612500 0.237500
vt 0.387500 0.237500
vt 0.387500 0.762500
vt 0.612500 0.762500
vt 0.612500 0.987500
vt 0.387500 0.987500
vt 0.637500 0.512500
vt 0.862500 0.512500
vt 0.862500 0.737500
vt 0.637500 0.737500
vt 0.387500 0.512500
vt 0.612500 0.512500
vt 0.612500 0.737500
vt 0.387500 0.737500
vt 0.612500 0.487500
vt 0.625000 0.487500
vt 0.612500 0.500000
vt 0.362500 0.500000
vt 0.375000 0.512500
vt 0.362500 0.512500
vt 0.625000 0.737500
vt 0.612500 0.750000
vt 0.375000 0.762500
vt 0.387500 0.750000
vt 0.375000 0.762500
vt 0.612500 0.250000
vt 0.625000 0.237500
vt 0.612500 0.250000
vt 0.387500 0.250000
vt 0.375000 0.237500
vt 0.612500 0.000000
vt 0.625000 0.012500
vt 0.125000 0.737500
vt 0.137500 0.737500
vt 0.137500 0.750000
vt 0.137500 0.512500
vt 0.125000 0.512500
vt 0.137500 0.500000
vt 0.387500 0.487500
vt 0.387500 0.000000
vt 0.612500 0.262500
vt 0.387500 0.262500
vt 0.625000 0.762500
vt 0.625000 0.987500
vt 0.362500 0.737500
vt 0.362500 0.750000
vt 0.625000 0.262500
vn 0.0000 -1.0000 0.0000
vn -1.0000 0.0000 0.0000
vn 1.0000 0.0000 0.0000
vn 0.5773 0.5773 -0.5774
vn 0.5773 -0.5773 -0.5774
vn 0.5773 0.5773 0.5774
vn 0.5773 -0.5773 0.5774
vn -0.5773 0.5773 -0.5774
vn -0.5773 -0.5774 -0.5774
vn -0.5773 0.5773 0.5774
vn -0.5773 -0.5774 0.5774
vn -0.7071 -0.7071 0.0000
vn 0.0000 -0.7071 -0.7071
vn 0.7071 0.0000 -0.7071
vn -0.7071 0.0000 0.7071
vn 0.7071 0.0000 0.7071
vn -0.7071 0.0000 -0.7071
vn 0.0000 0.7071 0.7071
vn 0.7071 0.7071 0.0000
vn 0.0000 -0.7071 0.7071
vn -0.7071 0.7071 0.0000
vn 0.0000 0.7071 -0.7071
vn 0.7071 -0.7071 0.0000
vn 0.0000 1.0000 0.0000
vn 0.5773 0.5774 0.5774
vn 0.5773 -0.5774 0.5774
vn -0.5773 0.5774 0.5774
vn 0.0000 0.0000 -1.0000
vn 0.0000 0.0000 1.0000
vn 0.5774 0.5774 -0.5774
vn 0.5774 -0.5774 -0.5773
vn 0.5774 -0.5773 0.5774
vn -0.5774 0.5773 -0.5774
vn -0.5774 -0.5773 -0.5773
vn -0.5774 -0.5774 0.5774
vn 0.5774 -0.5774 -0.5774
vn -0.5774 0.5774 -0.5774
vn -0.5774 -0.5774 -0.5774
usemtl Material
s off
f 62/1/1 12/2/1 40/3/1 76/4/1
f 82/5/2 65/6/2 49/7/2 54/8/2
f 19/9/3 9/10/3 24/11/3 36/12/3
f 1/13/4 6/14/4 9/15/4
f 17/16/5 19/17/5 12/2/5
f 28/18/6 32/19/6 24/11/6
f 40/20/7 36/21/7 38/22/7
f 49/23/8 53/24/8 44/25/8
f 54/8/9 59/26/9 62/27/9
f 65/6/10 69/28/10 72/29/10
f 82/30/11 76/4/11 79/31/11
f 62/1/12 76/4/12 82/30/12 54/32/12
f 12/2/13 62/1/13 59/33/13 17/16/13
f 9/10/14 19/9/14 17/34/14 1/13/14
f 79/35/15 69/28/15 65/6/15 82/5/15
f 32/36/16 38/37/16 36/12/16 24/11/16
f 44/38/17 59/39/17 54/8/17 49/7/17
f 28/40/18 72/41/18 69/42/18 32/36/18
f 6/43/19 28/44/19 24/11/19 9/10/19
f 76/4/20 40/3/20 38/45/20 79/31/20
f 72/29/21 53/24/21 49/7/21 65/6/21
f 53/46/22 6/14/22 1/13/22 44/38/22
f 40/3/23 12/2/23 19/9/23 36/12/23
f 61/47/1 14/48/1 41/49/1 75/50/1
f 84/51/2 67/52/2 48/53/2 56/54/2
f 4/55/24 50/56/24 74/57/24 26/58/24
f 18/59/3 11/60/3 23/61/3 34/62/3
f 4/63/4 11/64/4 2/65/4
f 15/66/5 18/67/5 14/48/5
f 26/68/25 1/69/25 23/61/25
f 41/70/26 34/71/26 17/72/26
f 48/73/8 50/74/8 43/75/8
f 56/54/9 58/76/9 61/77/9
f 67/52/27 44/78/27 74/79/27
f 84/80/11 75/50/11 59/81/11
f 61/47/12 75/50/12 84/80/12 56/82/12
f 14/48/13 61/47/13 58/83/13 15/66/13
f 11/60/14 18/59/14 15/84/14 2/65/14
f 59/85/15 44/78/15 67/52/15 84/51/15
f 1/86/16 17/87/16 34/62/16 23/61/16
f 43/88/17 58/89/17 56/54/17 48/53/17
f 26/90/18 74/91/18 44/92/18 1/86/18
f 4/55/19 26/58/19 23/61/19 11/60/19
f 75/50/20 41/49/20 17/93/20 59/81/20
f 74/79/21 50/74/21 48/53/21 67/52/21
f 50/94/22 4/63/22 2/65/22 43/88/22
f 41/49/23 14/48/23 18/59/23 34/62/23
f 58/89/28 43/88/28 2/65/28 15/84/28
f 63/95/1 13/96/1 42/97/1 77/98/1
f 83/99/2 66/100/2 47/101/2 57/102/2
f 39/103/29 31/104/29 68/105/29 78/106/29
f 5/107/24 52/108/24 71/109/24 27/110/24
f 20/111/3 8/112/3 22/113/3 33/114/3
f 32/115/30 5/116/30 8/117/30
f 38/118/31 20/119/31 13/96/31
f 27/120/6 31/121/6 22/113/6
f 39/122/32 42/123/32 33/124/32
f 47/125/33 52/126/33 69/127/33
f 57/102/34 79/128/34 63/129/34
f 66/100/10 68/130/10 71/131/10
f 83/132/35 77/98/35 78/133/35
f 63/95/12 77/98/12 83/132/12 57/134/12
f 13/96/13 63/95/13 79/135/13 38/118/13
f 8/112/14 20/111/14 38/136/14 32/115/14
f 78/137/15 68/130/15 66/100/15 83/99/15
f 31/104/16 39/103/16 33/114/16 22/113/16
f 69/138/17 79/139/17 57/102/17 47/101/17
f 27/140/18 71/141/18 68/105/18 31/104/18
f 5/107/19 27/110/19 22/113/19 8/112/19
f 77/98/20 42/97/20 39/142/20 78/133/20
f 71/131/21 52/126/21 47/101/21 66/100/21
f 52/143/22 5/116/22 32/115/22 69/138/22
f 42/97/23 13/96/23 20/111/23 33/114/23
f 81/144/2 64/145/2 46/146/2 55/147/2
f 37/148/29 30/149/29 70/150/29 80/151/29
f 7/152/24 51/153/24 73/154/24 29/155/24
f 21/156/3 10/157/3 25/158/3 35/159/3
f 3/160/30 7/161/30 10/162/30
f 16/163/36 21/164/36 6/165/36
f 29/166/25 30/167/25 25/158/25
f 28/168/26 35/169/26 37/170/26
f 46/171/37 51/172/37 45/173/37
f 55/147/38 60/174/38 53/175/38
f 64/145/27 70/176/27 73/177/27
f 81/178/11 72/179/11 80/180/11
f 53/181/12 72/179/12 81/178/12 55/182/12
f 6/165/13 53/181/13 60/183/13 16/163/13
f 10/157/14 21/156/14 16/184/14 3/160/14
f 80/185/15 70/176/15 64/145/15 81/144/15
f 30/149/16 37/148/16 35/159/16 25/158/16
f 45/186/17 60/187/17 55/147/17 46/146/17
f 29/188/18 73/189/18 70/150/18 30/149/18
f 7/152/19 29/155/19 25/158/19 10/157/19
f 72/179/20 28/190/20 37/191/20 80/180/20
f 73/177/21 51/172/21 46/146/21 64/145/21
f 51/192/22 7/161/22 3/160/22 45/186/22
f 28/190/23 6/165/23 21/156/23 35/159/23
f 60/187/28 45/186/28 3/160/28 16/184/28
